# xmcd
#
# Track frame offsets:
#	150
#	20078
#	38044
#	61244
#	79022
#	94927
#	120495
#	139048
#	163702
#
# Disc length: 2487 seconds
#
# Revision: 0
# Processed by: cddbd v1.5.1PL0 Copyright (c) Steve Scherf et al.
# Submitted via: audiograbber 1.83.01
#
DISCID=6e09b509
DTITLE=Various Arists - Bollywood Love Theme
DYEAR=2004
DGENRE=Instrumental Pop
TTITLE0=Kaho Na Pyar Hai
TTITLE1=Dil To Pagal Hai
TTITLE2=Mohabbatein
TTITLE3=Kuch Kuch Hota Hai
TTITLE4=Kabhi Khushi Kabhi Ghum
TTITLE5=1942 A Love Story
TTITLE6=Alaipayuthey (Saathiya)
TTITLE7=Jo Jeeta Wohi Sikandar
TTITLE8=Dilwale Dulhaniya Le Jayenge
EXTD=
EXTT0=
EXTT1=
EXTT2=
EXTT3=
EXTT4=
EXTT5=
EXTT6=
EXTT7=
EXTT8=
PLAYORDER=
